# xmcd
#
# Track frame offsets: 
#        150
#        15487
#        30535
#        44080
#        60857
#        79890
#        95005
#        124117
#        143310
#        159335
#        178505
#        192460
#
# Disc length: 2908 seconds
#
# Revision: 0
# Processed by: cddbd v1.5.1PL2 Copyright (c) Steve Scherf et al.
# Submitted via: ExactAudioCopy v0.95a5
#
DISCID=920b5a0c
DTITLE=Pinetop Perkins and Michael Parrish - One Heart 
DYEAR=1998
DGENRE=Blues
TTITLE0=CC Blues
TTITLE1=F Boogie
TTITLE2=Piano Jive
TTITLE3=Two Finger Boogie
TTITLE4=Got Me Runnin'
TTITLE5=BCD
TTITLE6=Spacey Blues
TTITLE7=Hurts Me Too
TTITLE8=Pinetop's Boogie Woogie
TTITLE9=Blues For Gabriel
TTITLE10=Swampy Boogie
TTITLE11=Blues Again
EXTD=
EXTT0=
EXTT1=
EXTT2=
EXTT3=
EXTT4=
EXTT5=
EXTT6=
EXTT7=
EXTT8=
EXTT9=
EXTT10=
EXTT11=
PLAYORDER=
